# xmcd
#
# Track frame offsets:
#	150
#	25392
#	44885
#	67742
#	82937
#	98915
#	118290
#	133420
#	153610
#	169252
#	190495
#
# Disc length: 2751 seconds
#
# Revision: 0
# Processed by: cddbd v1.5.1PL0 Copyright (c) Steve Scherf et al.
# Submitted via: audiograbber 1.83.01
#
DISCID=a10abd0b
DTITLE=Java Jazz - Black Coffee Blues
DYEAR=1999
DGENRE=Blues
TTITLE0=Government Blues
TTITLE1=Artichoke Soup
TTITLE2=Rockin' Johnny
TTITLE3=Way Past It
TTITLE4=Joyful Tear
TTITLE5=Chillin'
TTITLE6=Don't Say That You're Leavin'
TTITLE7=Ace Of Diamonds
TTITLE8=Here Come The Train
TTITLE9=City Streets
TTITLE10=Coffee Tawk
EXTD=
EXTT0=
EXTT1=
EXTT2=
EXTT3=
EXTT4=
EXTT5=
EXTT6=
EXTT7=
EXTT8=
EXTT9=
EXTT10=
PLAYORDER=
